<svg width="22" height="20" viewBox="0 0 22 14"><path class="social-icon" d="M1.477.02c-.19 0-.37.037-.537.1l10.023 8.083 10.17-8.05A1.473 1.473 0 0 0 20.52.02H1.477z"/><path class="social-icon" d="M21.938 1.088L11.354 9.465a.636.636 0 0 1-.794-.004L.084 1.013c-.048.14-.08.287-.08.44v11.09c0 .168.036.327.09.478l5.84-5.55a.638.638 0 0 1 .884.01.6.6 0 0 1-.01.86L.976 13.886c.157.055.325.09.5.09H20.52c.197 0 .384-.04.557-.107l-5.857-5.57a.597.597 0 0 1-.01-.862.636.636 0 0 1 .885-.01l5.825 5.537a1.39 1.39 0 0 0 .07-.42V1.452a1.43 1.43 0 0 0-.052-.365z"/></svg>